# xmcd
#
# Track frame offsets:
# 150
# 21589
# 45590
# 67608
# 79777
# 92890
# 111777
# 124213
# 144994
#
# Disc length: 2182 seconds
#
#
# Revision: 0
# Processed by: cddbd v1.5.1PL2 Copyright (c) Steve Scherf et al.
# Submitted via: FreeRIP 2.52 
#
DISCID=72088409
DTITLE=Silvio Gallucci - CINEMA - themes
DYEAR=1900
DGENRE=Musical
TTITLE0=AS TIMES GOES BY
TTITLE1=AUTUMN LEAVES
TTITLE2=EM ALGUM LUGAR DO PASSADO
TTITLE3=HELLO DOLY
TTITLE4=ANÔNIMO VENEZIANO
TTITLE5=TEA FOR TWO
TTITLE6=O PODEROSO CHEFÃO
TTITLE7=SUMMER 42
TTITLE8=NADIA'S THEME
EXTD=
EXTT0=
EXTT1=
EXTT2=
EXTT3=
EXTT4=
EXTT5=
EXTT6=
EXTT7=
EXTT8=
PLAYORDER=
